<svg xmlns="http://www.w3.org/2000/svg" width="640" height="960" viewBox="0 0 640 960" role="img" aria-label="Book cover placeholder">
  <defs>
    <linearGradient id="bg" x1="0" y1="0" x2="1" y2="1">
      <stop offset="0%" stop-color="#dbeafe" />
      <stop offset="100%" stop-color="#cffafe" />
    </linearGradient>
  </defs>
  <rect width="640" height="960" fill="url(#bg)" rx="36" />
  <rect x="36" y="36" width="568" height="888" fill="none" stroke="#0f172a" stroke-opacity="0.15" stroke-width="4" rx="24" />
  <rect x="72" y="120" width="496" height="20" fill="#0f172a" fill-opacity="0.18" rx="10" />
  <rect x="72" y="170" width="420" height="20" fill="#0f172a" fill-opacity="0.12" rx="10" />
  <rect x="72" y="220" width="300" height="20" fill="#0f172a" fill-opacity="0.12" rx="10" />
  <rect x="180" y="340" width="280" height="280" fill="#0f172a" fill-opacity="0.08" rx="20" />
  <path d="M320 390c-44 0-80 36-80 80s36 80 80 80 80-36 80-80-36-80-80-80Zm0 22c32 0 58 26 58 58s-26 58-58 58-58-26-58-58 26-58 58-58Z" fill="#0f172a" fill-opacity="0.18" />
  <path d="M236 670h168v30H236z" fill="#0f172a" fill-opacity="0.14" />
  <path d="M72 780h496v22H72z" fill="#0f172a" fill-opacity="0.12" rx="11" />
  <path d="M72 826h380v22H72z" fill="#0f172a" fill-opacity="0.1" rx="11" />
</svg>
